<svg xmlns="http://www.w3.org/2000/svg" width="329.82" height="710.971" viewBox="0 0 329.82 710.971">
  <path id="border" d="M315.572,722.485H43.135a23.3,23.3,0,0,1-8.738-2.042,36.551,36.551,0,0,1-9.106-5.543,30.977,30.977,0,0,1-7.973-9.848,26.888,26.888,0,0,1-2.875-12.19V43.234a30.336,30.336,0,0,1,2.423-11.68A35.8,35.8,0,0,1,23.323,21.4c5.688-6.282,13.023-9.884,20.124-9.884H84.256c4.118,0,6.834,2.9,7.649,8.179,1.115,6.868,3.462,11.779,6.978,14.6a10.654,10.654,0,0,0,6.714,2.493H253.111a10.5,10.5,0,0,0,6.675-2.454c3.5-2.8,5.86-7.729,7.018-14.649.929-5.266,3.646-8.166,7.648-8.166H315.26a23.852,23.852,0,0,1,10.2,2.385,31.4,31.4,0,0,1,8.879,6.355,35.633,35.633,0,0,1,7.237,10.58,30.457,30.457,0,0,1,2.688,12.4V692.862a26.888,26.888,0,0,1-2.875,12.19,30.977,30.977,0,0,1-7.973,9.848,36.534,36.534,0,0,1-9.105,5.543A23.3,23.3,0,0,1,315.572,722.485ZM43.448,13.514c-6.56,0-13.372,3.382-18.689,9.28a33.8,33.8,0,0,0-6.04,9.519,28.345,28.345,0,0,0-2.274,10.922V692.862A24.907,24.907,0,0,0,19.12,704.18a29,29,0,0,0,7.452,9.184,34.6,34.6,0,0,0,8.525,5.2,21.684,21.684,0,0,0,8.038,1.916H315.572a21.686,21.686,0,0,0,8.038-1.916,34.578,34.578,0,0,0,8.525-5.2,29,29,0,0,0,7.452-9.184,24.91,24.91,0,0,0,2.677-11.318V43.227a28.464,28.464,0,0,0-2.539-11.63,33.633,33.633,0,0,0-6.808-9.934,29.436,29.436,0,0,0-8.247-5.924,21.889,21.889,0,0,0-9.409-2.225H274.452a4.675,4.675,0,0,0-3.659,1.631,9.941,9.941,0,0,0-2.017,4.874c-1.243,7.415-3.847,12.755-7.74,15.871a12.458,12.458,0,0,1-7.925,2.893H105.6a12.7,12.7,0,0,1-7.965-2.932c-3.913-3.136-6.5-8.467-7.7-15.844a9.486,9.486,0,0,0-1.942-4.866,4.757,4.757,0,0,0-3.732-1.626Z" transform="translate(-14.444 -11.514)" fill="#424b5a"/>
</svg>
