<svg xmlns="http://www.w3.org/2000/svg" width="147" height="40" viewBox="0 0 147 40">
  <g id="button_-_playStore" data-name="button - playStore" transform="translate(-442 -1758)">
    <path id="Rectangle_5" data-name="Rectangle 5" d="M0,0H147V40H0Z" transform="translate(442 1758)" fill="#eb2424"/>
    <g id="Group_2" data-name="Group 2">
      <path id="Google_Play" data-name="Google Play" d="M525.8,1792.076a3.943,3.943,0,0,1-2.483-.834,4.209,4.209,0,0,1-1.286-1.679l1.626-.677a2.35,2.35,0,0,0,2.143,1.514c1.444,0,2.272-.91,2.272-2.5v-.612h-.064a2.9,2.9,0,0,1-2.239.967,4.257,4.257,0,0,1,0-8.507,2.949,2.949,0,0,1,2.239.951h.064v-.693h1.773v7.636a4.535,4.535,0,0,1-1.2,3.394A3.98,3.98,0,0,1,525.8,1792.076Zm.13-10.65a2.587,2.587,0,0,0,0,5.155,2.6,2.6,0,0,0,0-5.155Zm43.262,10.364h-1.946l1.9-4.214L565.813,1780h2.011l2.219,5.42h.065l2.138-5.42h2.075l-5.131,11.788Zm-31.067-3.533a4.189,4.189,0,0,1-3.017-1.232,4.266,4.266,0,0,1-1.2-3.02,4.048,4.048,0,0,1,4.012-4.254,4.007,4.007,0,0,1,3.641,2.707l.193.483-5.686,2.352a2.151,2.151,0,0,0,2.061,1.289,2.418,2.418,0,0,0,2.1-1.176l1.45.968A4.242,4.242,0,0,1,538.124,1788.258Zm-.145-6.862a2.281,2.281,0,0,0-1.566.7,2.375,2.375,0,0,0-.657,1.779l3.8-1.58A1.649,1.649,0,0,0,537.979,1781.4Zm-21.339,6.862a4.279,4.279,0,0,1-3.017-1.208,4.335,4.335,0,0,1,0-6.1,4.384,4.384,0,0,1,6.033,0,4.335,4.335,0,0,1,0,6.1A4.277,4.277,0,0,1,516.64,1788.258Zm0-6.831a2.326,2.326,0,0,0-1.684.715,2.65,2.65,0,0,0-.717,1.863,2.406,2.406,0,1,0,4.8,0,2.651,2.651,0,0,0-.716-1.863A2.324,2.324,0,0,0,516.64,1781.427Zm-9.314,6.831a4.279,4.279,0,0,1-3.017-1.208,4.334,4.334,0,0,1,0-6.1,4.385,4.385,0,0,1,6.034,0,4.335,4.335,0,0,1,0,6.1A4.279,4.279,0,0,1,507.326,1788.258Zm0-6.831a2.325,2.325,0,0,0-1.683.715,2.65,2.65,0,0,0-.717,1.863,2.407,2.407,0,1,0,4.8,0,2.649,2.649,0,0,0-.717-1.863A2.327,2.327,0,0,0,507.326,1781.427Zm-11.078,6.831a6.708,6.708,0,0,1-4.717-1.937,6.479,6.479,0,0,1,0-9.335,6.708,6.708,0,0,1,4.717-1.937,6.278,6.278,0,0,1,4.527,1.821l-1.273,1.273a4.616,4.616,0,0,0-3.254-1.29,4.675,4.675,0,0,0-3.366,1.4,4.9,4.9,0,0,0,0,6.795,4.676,4.676,0,0,0,3.366,1.4,4.388,4.388,0,0,0,3.335-1.322,3.791,3.791,0,0,0,.983-2.271h-4.317v-1.8h6.073a5.885,5.885,0,0,1,.1,1.127,5.845,5.845,0,0,1-6.169,6.074Zm65.191-.021a2.878,2.878,0,0,1-3.1-2.751,2.483,2.483,0,0,1,1.131-2.094,4.4,4.4,0,0,1,2.471-.719,4.151,4.151,0,0,1,1.946.481v-.129a1.8,1.8,0,0,0-1.962-1.608,1.748,1.748,0,0,0-1.7.917l-1.656-.692a3.525,3.525,0,0,1,3.328-1.913,4.063,4.063,0,0,1,2.7.9,3.26,3.26,0,0,1,1.1,2.561v4.792h-1.8v-.965h-.065A2.642,2.642,0,0,1,561.438,1788.237Zm.742-4.055c-.985,0-1.979.413-1.979,1.336,0,.774.9,1.062,1.463,1.062a2.251,2.251,0,0,0,2.22-1.979A3.342,3.342,0,0,0,562.18,1784.182ZM557.31,1788H555.44v-12.5h1.869V1788ZM533,1788h-1.87v-12.5H533V1788Zm14.7,0h-1.865v-12.5h4.471a3.889,3.889,0,1,1,0,7.766H547.7V1788Zm0-10.76v4.285h2.654a2.143,2.143,0,1,0,0-4.285Z" fill="#fff"/>
      <path id="Get_it_on" data-name="Get it on" d="M517.713,1770.224a3.242,3.242,0,0,1,0-4.45,3.106,3.106,0,0,1,4.4,0,3.232,3.232,0,0,1,0,4.445,3.114,3.114,0,0,1-4.4,0Zm.569-3.947a2.562,2.562,0,0,0,0,3.444,2.309,2.309,0,0,0,3.261,0,2.557,2.557,0,0,0,0-3.444,2.306,2.306,0,0,0-3.261,0Zm-27.517,3.955a3.134,3.134,0,0,1,2.209-5.368,3.114,3.114,0,0,1,1.23.251,2.5,2.5,0,0,1,.94.671l-.528.527a2.034,2.034,0,0,0-1.642-.712,2.4,2.4,0,1,0,1.676,4.123,1.887,1.887,0,0,0,.5-1.215h-2.177v-.721h2.907a2.6,2.6,0,0,1,.041.453,2.722,2.722,0,0,1-.745,2,2.918,2.918,0,0,1-2.2.888A3.031,3.031,0,0,1,490.765,1770.233Zm18.445.767h-.77v-6h.77v6h0Zm-8.679,0h-3.5v-6h3.5v.737H497.8v1.9h2.463v.722H497.8v1.9h2.732V1771h0Zm27.369,0-3.05-4.893h-.034l.034,1.156V1771h-.771v-6h.939l2.916,4.667h.033l-.033-1.156V1765h.771v6Zm-15.268,0h-.77v-5.262h-1.676V1765h4.123v.737h-1.676V1771h0Zm-8.85,0h-.77v-5.262h-1.676V1765h4.123v.737h-1.676V1771h0Z" fill="#fff"/>
      <path id="Icon" d="M459,1765.474l-.009.009.018-.018a1.291,1.291,0,0,1,.884-.325,2.3,2.3,0,0,1,1.121.337l14.608,8.3,4.893,2.78c1.4.794,1.4,2.094,0,2.889l-4.893,2.78-.067.037-14.541,8.262a1.919,1.919,0,0,1-1.6.253,1.226,1.226,0,0,1-.4-.243l-.019-.018q-.028-.026-.055-.054a2,2,0,0,1-.463-1.4v-22.116a2,2,0,0,1,.463-1.405l.064-.064c-.022.021-.043.042-.064.064L471.4,1778l-12.463,12.462,16.686-16.686L471.4,1778Z" fill="#fff"/>
    </g>
  </g>
</svg>
