<svg xmlns="http://www.w3.org/2000/svg" width="146" height="40" viewBox="0 0 146 40">
  <g id="button_-_appStore" data-name="button - appStore" transform="translate(-246 -1758)">
    <rect id="Rectangle_5" data-name="Rectangle 5" width="146" height="40" transform="translate(246 1758)" fill="#424b5a"/>
    <path id="App_Store" data-name="App Store" d="M322.67,1793.414h-2.131v-10.347c0-.993-.027-2.056-.079-3.159h1.876l.119,1.521h.04a3.795,3.795,0,0,1,6.072-.376,5.325,5.325,0,0,1,1.134,3.535,5.474,5.474,0,0,1-1.324,3.869,3.883,3.883,0,0,1-2.941,1.265,2.949,2.949,0,0,1-2.723-1.363h-.04v5.054Zm2.369-12.006a2.233,2.233,0,0,0-1.432.523,2.439,2.439,0,0,0-.838,1.373,2.837,2.837,0,0,0-.1.65v1.6a2.583,2.583,0,0,0,.64,1.768,2.146,2.146,0,0,0,1.67.721,2.191,2.191,0,0,0,1.875-.928,4.1,4.1,0,0,0,.672-2.449,3.97,3.97,0,0,0-.634-2.31A2.19,2.19,0,0,0,325.039,1781.408ZM309.5,1793.414v-10.347c0-.985-.027-2.048-.079-3.159H311.3l.12,1.521h.04a3.794,3.794,0,0,1,6.071-.376,5.317,5.317,0,0,1,1.136,3.535,5.477,5.477,0,0,1-1.323,3.869,3.887,3.887,0,0,1-2.942,1.265,2.954,2.954,0,0,1-2.725-1.363h-.04v5.054H309.5Zm4.5-12.006a2.228,2.228,0,0,0-1.431.523,2.443,2.443,0,0,0-.839,1.373,2.768,2.768,0,0,0-.1.65v1.6a2.576,2.576,0,0,0,.642,1.768,2.138,2.138,0,0,0,1.668.721,2.192,2.192,0,0,0,1.876-.928,4.1,4.1,0,0,0,.671-2.449,3.973,3.973,0,0,0-.632-2.31A2.191,2.191,0,0,0,314,1781.408Zm40.909,8.313a4.308,4.308,0,0,1-3.364-1.4,5.126,5.126,0,0,1-1.255-3.534,5.239,5.239,0,0,1,1.293-3.652,4.5,4.5,0,0,1,3.484-1.422,4.4,4.4,0,0,1,3.4,1.4,5.07,5.07,0,0,1,1.227,3.514,5.285,5.285,0,0,1-1.264,3.632A4.53,4.53,0,0,1,354.911,1789.721Zm.083-8.45a2.148,2.148,0,0,0-1.956,1.148,4.436,4.436,0,0,0-.572,2.318,4.341,4.341,0,0,0,.572,2.276,2.162,2.162,0,0,0,1.936,1.148,2.14,2.14,0,0,0,1.914-1.167,4.785,4.785,0,0,0,.019-4.574A2.111,2.111,0,0,0,354.993,1781.271Zm-17.762,8.429a6.378,6.378,0,0,1-3.449-.829l.494-1.777a5.869,5.869,0,0,0,3.082.85,2.931,2.931,0,0,0,1.877-.544,1.783,1.783,0,0,0,.67-1.454,1.861,1.861,0,0,0-.553-1.364,5.174,5.174,0,0,0-1.836-1.03c-2.318-.864-3.494-2.148-3.494-3.816a3.388,3.388,0,0,1,1.225-2.688,4.85,4.85,0,0,1,3.258-1.049,6.484,6.484,0,0,1,3.02.632l-.533,1.738a5.265,5.265,0,0,0-2.547-.612,2.588,2.588,0,0,0-1.756.554,1.587,1.587,0,0,0-.533,1.205,1.631,1.631,0,0,0,.611,1.3,6.929,6.929,0,0,0,1.936,1.027,6.614,6.614,0,0,1,2.527,1.618,3.4,3.4,0,0,1,.807,2.307,3.563,3.563,0,0,1-1.182,2.764A5.264,5.264,0,0,1,337.232,1789.7Zm10.1,0a2.572,2.572,0,0,1-1.975-.77,3.8,3.8,0,0,1-.711-2.588v-4.837h-1.4v-1.6h1.4v-1.757l2.093-.632v2.389h2.35v1.6h-2.35v4.659c0,1.179.419,1.777,1.245,1.777a3.819,3.819,0,0,0,.947-.1l.059,1.619A4.837,4.837,0,0,1,347.33,1789.7Zm25.077-.018a4.68,4.68,0,0,1-3.505-1.313,4.868,4.868,0,0,1-1.274-3.523,5.522,5.522,0,0,1,1.186-3.614,4.1,4.1,0,0,1,3.355-1.539,3.591,3.591,0,0,1,3.141,1.539,5.209,5.209,0,0,1,.846,3.02,4.946,4.946,0,0,1-.078.967h-6.4a2.794,2.794,0,0,0,.928,2.174,3.181,3.181,0,0,0,2.092.671,7.1,7.1,0,0,0,2.588-.454l.334,1.48A8.04,8.04,0,0,1,372.406,1789.682Zm-.4-8.511a2.03,2.03,0,0,0-1.7.869,3.187,3.187,0,0,0-.631,1.658h4.441a2.9,2.9,0,0,0-.414-1.637A1.869,1.869,0,0,0,372.01,1781.17Zm-73.389,8.334H296.41l4.284-13.307h2.646l4.306,13.306-2.272,0-1.244-3.909h-4.324l-1.185,3.909Zm3.3-11.532c-.127.546-.334,1.366-.633,2.507l-1.105,3.475h3.574l-1.126-3.475c-.118-.355-.325-1.129-.671-2.508Zm61.759,11.531h-2.131l.02-6.574c0-1.1-.027-2.112-.08-3.021h1.858l.077,1.836h.059a3.292,3.292,0,0,1,1.066-1.519,2.587,2.587,0,0,1,1.541-.515,3.423,3.423,0,0,1,.534.04v2.033a3.666,3.666,0,0,0-.672-.059,2.021,2.021,0,0,0-1.738.85,3.2,3.2,0,0,0-.533,1.895v5.034Z" fill="#fff"/>
    <path id="Download_on_the" data-name="Download on the" d="M348.9,1771.54a2.123,2.123,0,0,1-1.654-.689,2.52,2.52,0,0,1-.616-1.736,2.57,2.57,0,0,1,.635-1.794,2.212,2.212,0,0,1,1.713-.7,2.16,2.16,0,0,1,1.669.689,2.494,2.494,0,0,1,.6,1.725,2.6,2.6,0,0,1-.621,1.786A2.225,2.225,0,0,1,348.9,1771.54Zm.04-4.153a1.059,1.059,0,0,0-.961.564,2.408,2.408,0,0,0,0,2.257,1.064,1.064,0,0,0,.951.563,1.05,1.05,0,0,0,.94-.573,2.349,2.349,0,0,0,.011-2.247A1.044,1.044,0,0,0,348.94,1767.388Zm-9.177,4.153a1.78,1.78,0,0,1-1.416-.67,2.613,2.613,0,0,1-.562-1.736,2.746,2.746,0,0,1,.61-1.853,1.89,1.89,0,0,1,1.455-.66,1.42,1.42,0,0,1,1.328.64h.02v-2.706h1.048v5.608c0,.459.013.887.038,1.27h-.931l-.049-.757h-.029A1.572,1.572,0,0,1,339.763,1771.54Zm.328-4.1a1.083,1.083,0,0,0-.923.466,2.008,2.008,0,0,0-.336,1.193,1.863,1.863,0,0,0,.322,1.135,1.082,1.082,0,0,0,.915.465,1.019,1.019,0,0,0,.829-.388,1.3,1.3,0,0,0,.3-.863v-.786a1.575,1.575,0,0,0-.029-.33,1.2,1.2,0,0,0-.379-.635A1.033,1.033,0,0,0,340.09,1767.436Zm-6.186,4.1a1.423,1.423,0,0,1-1.076-.427,1.346,1.346,0,0,1-.369-.96,1.472,1.472,0,0,1,.723-1.318,3.725,3.725,0,0,1,1.98-.446h.053v-.087c0-.618-.329-.932-.979-.932a2.209,2.209,0,0,0-1.228.349l-.213-.688a3.041,3.041,0,0,1,1.617-.407c1.227,0,1.849.656,1.849,1.95v1.736a7.524,7.524,0,0,0,.068,1.124h-.941l-.077-.544h-.029A1.622,1.622,0,0,1,333.9,1771.54Zm1.237-2.455c-1.084,0-1.634.32-1.634.95a.708.708,0,0,0,.2.554.737.737,0,0,0,.512.184,1.062,1.062,0,0,0,.641-.218.9.9,0,0,0,.363-.558,1,1,0,0,0,.017-.184v-.727Zm-6.231,2.455a2.115,2.115,0,0,1-1.654-.689,2.519,2.519,0,0,1-.616-1.736,2.579,2.579,0,0,1,.635-1.794,2.21,2.21,0,0,1,1.711-.7,2.168,2.168,0,0,1,1.67.688,2.494,2.494,0,0,1,.6,1.725,2.6,2.6,0,0,1-.621,1.786A2.225,2.225,0,0,1,328.91,1771.54Zm.04-4.153a1.055,1.055,0,0,0-.961.564,2.17,2.17,0,0,0-.281,1.138,2.142,2.142,0,0,0,.281,1.12,1.064,1.064,0,0,0,.951.563,1.049,1.049,0,0,0,.939-.573,2.346,2.346,0,0,0,.01-2.247A1.036,1.036,0,0,0,328.95,1767.388Zm-22.389,4.153a2.118,2.118,0,0,1-1.654-.689,2.523,2.523,0,0,1-.615-1.736,2.579,2.579,0,0,1,.635-1.794,2.211,2.211,0,0,1,1.712-.7,2.16,2.16,0,0,1,1.669.689,2.494,2.494,0,0,1,.6,1.725,2.6,2.6,0,0,1-.621,1.786A2.226,2.226,0,0,1,306.561,1771.54Zm.04-4.153a1.055,1.055,0,0,0-.961.564,2.17,2.17,0,0,0-.281,1.138,2.141,2.141,0,0,0,.281,1.12,1.064,1.064,0,0,0,.951.563,1.049,1.049,0,0,0,.94-.573,2.352,2.352,0,0,0,.01-2.247A1.038,1.038,0,0,0,306.6,1767.388Zm56.471,4.143a1.259,1.259,0,0,1-.968-.379,1.858,1.858,0,0,1-.35-1.271V1767.5h-.689v-.785h.689v-.864l1.027-.311v1.174h1.154v.786h-1.153v2.29c0,.579.206.873.611.873a1.826,1.826,0,0,0,.467-.049l.027.795A2.353,2.353,0,0,1,363.073,1771.53Zm10.29-.01a2.3,2.3,0,0,1-1.722-.644,2.391,2.391,0,0,1-.625-1.732,2.709,2.709,0,0,1,.582-1.775,2.013,2.013,0,0,1,1.648-.756,1.76,1.76,0,0,1,1.541.756,2.837,2.837,0,0,1,.381,1.958h-3.143a1.382,1.382,0,0,0,.455,1.067,1.564,1.564,0,0,0,1.029.33,3.474,3.474,0,0,0,1.271-.223l.164.728A3.956,3.956,0,0,1,373.362,1771.52Zm-.193-4.18a1,1,0,0,0-.833.427,1.592,1.592,0,0,0-.311.815h2.183a1.423,1.423,0,0,0-.2-.805A.92.92,0,0,0,373.17,1767.34Zm-73.961,4.151a12.777,12.777,0,0,1-1.533-.078v-6.431a11.109,11.109,0,0,1,1.805-.136,3.9,3.9,0,0,1,2.589.747,3.027,3.027,0,0,1,.979,2.416,3.3,3.3,0,0,1-1.057,2.658A4.23,4.23,0,0,1,299.209,1771.491Zm.359-5.82a4.679,4.679,0,0,0-.844.068v4.889a5.723,5.723,0,0,0,.708.029,2.491,2.491,0,0,0,1.858-.669,2.693,2.693,0,0,0,.655-1.95,2.13,2.13,0,0,0-2.377-2.367Zm25.522,5.77h-1.048l0-6.88h1.05v6.88Zm-12.8-.006h-.971l-1.387-4.714h1.077l.533,2.241c.121.5.229,1.007.32,1.513h.019c.074-.385.206-.891.389-1.5l.669-2.25h.854l.641,2.2c.154.532.281,1.054.378,1.552h.03a14.762,14.762,0,0,1,.319-1.552l.572-2.2h1.029l-1.475,4.712h-.96l-.61-2.047c-.153-.507-.281-1.019-.38-1.523h-.019a11,11,0,0,1-.379,1.523l-.649,2.047Zm57.191,0h-1.049v-2.68c0-.841-.319-1.268-.949-1.268a1,1,0,0,0-1,.735,1.294,1.294,0,0,0-.049.376v2.835H365.39v-6.876h1.047v2.841h.02a1.592,1.592,0,0,1,1.417-.775,1.464,1.464,0,0,1,1.077.427,2.15,2.15,0,0,1,.534,1.58v2.8Zm-12.6,0h-1.048v-2.7c0-.828-.32-1.248-.95-1.248a.947.947,0,0,0-.756.343,1.217,1.217,0,0,0-.292.808v2.8h-1.048v-3.366c0-.4-.012-.858-.037-1.348h.92l.049.736h.029a1.542,1.542,0,0,1,.544-.569,1.782,1.782,0,0,1,.95-.265,1.51,1.51,0,0,1,1.1.427,2.08,2.08,0,0,1,.544,1.562v2.823Zm-34.685,0H321.15v-2.7c0-.828-.319-1.248-.95-1.248a.951.951,0,0,0-.757.343,1.221,1.221,0,0,0-.292.808v2.8H318.1v-3.366c0-.381-.012-.822-.038-1.348h.921l.049.736h.03a1.508,1.508,0,0,1,.543-.569,1.777,1.777,0,0,1,.95-.265,1.507,1.507,0,0,1,1.1.427,2.082,2.082,0,0,1,.544,1.562v2.823Z" fill="#fff"/>
    <g id="Apple">
      <path id="Shape" d="M284.128,1777.784a5.8,5.8,0,0,1,2.761-4.864,5.936,5.936,0,0,0-4.676-2.528c-1.967-.207-3.875,1.177-4.877,1.177-1.022,0-2.565-1.157-4.228-1.123a6.225,6.225,0,0,0-5.24,3.2c-2.266,3.923-.576,9.688,1.6,12.859,1.086,1.553,2.355,3.287,4.016,3.226,1.625-.067,2.232-1.036,4.193-1.036,1.943,0,2.513,1.036,4.207,1,1.744-.028,2.842-1.56,3.89-3.127a12.829,12.829,0,0,0,1.779-3.623A5.6,5.6,0,0,1,284.128,1777.784Z" fill="#fff"/>
      <path id="Shape-2" data-name="Shape" d="M280.928,1768.306a5.706,5.706,0,0,0,1.306-4.089,5.813,5.813,0,0,0-3.758,1.944,5.429,5.429,0,0,0-1.34,3.938A4.8,4.8,0,0,0,280.928,1768.306Z" fill="#fff"/>
    </g>
  </g>
</svg>
