<svg id="computer" xmlns="http://www.w3.org/2000/svg" width="76" height="76" viewBox="0 0 76 76">
  <path id="Path_1" data-name="Path 1" d="M307.484,346a1.484,1.484,0,1,0,1.484,1.484A1.485,1.485,0,0,0,307.484,346Zm0,0" transform="translate(-260.578 -294.641)" fill="#353263"/>
  <path id="Path_2" data-name="Path 2" d="M68.578,0H7.422A7.43,7.43,0,0,0,0,7.422V52.844a7.43,7.43,0,0,0,7.422,7.422H30.578v6.828H29.094a7.424,7.424,0,0,0-7.422,7.422A1.484,1.484,0,0,0,23.156,76H52.844a1.484,1.484,0,0,0,1.484-1.484,7.43,7.43,0,0,0-7.422-7.422H45.422V60.266H68.578A7.43,7.43,0,0,0,76,52.844V7.422A7.43,7.43,0,0,0,68.578,0ZM7.422,2.969H68.578a4.458,4.458,0,0,1,4.453,4.453v38H66.2V11.281A1.484,1.484,0,0,0,64.719,9.8H52.844a1.484,1.484,0,0,0-1.484,1.484V45.422h-7.43c-.016-1.535-.056-3.049-.119-4.517a95.477,95.477,0,0,0-1.16-11.876,7.423,7.423,0,0,0,2.027-9.681l-5.145-8.911a1.484,1.484,0,0,0-2.571,0l-5.147,8.911a7.421,7.421,0,0,0,1.633,9.367A94.227,94.227,0,0,0,32.2,40.9c-.067,1.484-.109,3-.125,4.52h-7.43V23.156a1.477,1.477,0,0,0-.147-.641c0-.008-.006-.016-.01-.023L18.547,10.617a1.485,1.485,0,0,0-2.656,0L9.953,22.492c0,.008-.006.016-.009.023a1.475,1.475,0,0,0-.147.641V45.422H2.969v-38A4.458,4.458,0,0,1,7.422,2.969ZM54.328,45.422V12.766h8.906v2.969H61.75a1.484,1.484,0,0,0,0,2.969h1.484v4.453H61.75a1.484,1.484,0,0,0,0,2.969h1.484v4.453H61.75a1.484,1.484,0,0,0,0,2.969h1.484v5.938H61.75a1.484,1.484,0,0,0,0,2.969h1.484v2.969ZM38.246,30.475a7.432,7.432,0,0,0,1.6-.178c.275,1.766.68,4.89.92,9.187H35.242c.251-4.294.675-7.467.968-9.292A7.431,7.431,0,0,0,38.246,30.475Zm0-2.969a4.459,4.459,0,0,1-3.861-6.675l3.861-6.684,3.859,6.684A4.456,4.456,0,0,1,38.246,27.507Zm-3.14,14.946H40.9c.031.975.053,1.967.063,2.969H35.039C35.05,44.427,35.073,43.435,35.106,42.453ZM18.7,45.422V24.641h2.969V45.422Zm-5.937,0V24.641h2.969V45.422Zm.917-23.75L17.219,14.6l3.536,7.072ZM51.1,73.031H24.893a4.462,4.462,0,0,1,4.2-2.969H46.906A4.46,4.46,0,0,1,51.1,73.031Zm-8.652-5.937H33.547V60.266h8.906Zm26.125-9.8H7.422a4.458,4.458,0,0,1-4.453-4.453V48.391H73.031v4.453A4.458,4.458,0,0,1,68.578,57.3Zm0,0" fill="#353263"/>
  <path id="Path_3" data-name="Path 3" d="M216.391,346h-8.906a1.484,1.484,0,0,0,0,2.969h8.906a1.484,1.484,0,0,0,0-2.969Zm0,0" transform="translate(-175.422 -294.641)" fill="#353263"/>
</svg>
