<svg xmlns="http://www.w3.org/2000/svg" width="203.759" height="203.759" viewBox="0 0 203.759 203.759">
  <g id="consulting" transform="translate(-1 -1)">
    <path id="Path_62" data-name="Path 62" d="M21,53h6.573v6.573H21Z" transform="translate(45.729 118.894)" fill="#353263"/>
    <path id="Path_52" data-name="Path 52" d="M0,0H26.284s2.032-10.009,6.634-13.849c2.74-2.285,8.085-2.584,10.767-6.238C51.373-27.189,60.243,0,60.243,0H79.318S92.463,1.591,91.829,16.621s0,38.416,0,38.416l-38.846,5.08L30.277,79.123s.168-19.006-3.993-19.006C4.836,60.117,0,58.1,0,58.1l-5.683-26Z" transform="translate(108.759 23)" fill="#d2e2e8"/>
    <path id="Path_69" data-name="Path 69" d="M.154,5.547,21.965,4.022s9.064,2.334,13.666-1.506c2.74-2.285,10.018,3.654,12.7,0C56.018-4.587,60.243,0,60.243,0L76.577,4.022S87.239.889,86.6,15.918s-1.866,36.5-1.866,36.5l-24.5,10.214L55.9,77.325S37.84,56.156,33.679,56.156c-21.448,0-28.45-11.105-28.45-11.105L-5.683,32.1Z" transform="translate(114.759 113)" fill="#d2e2e8"/>
    <path id="Path_63" data-name="Path 63" d="M21,57h6.573v6.573H21Z" transform="translate(45.729 128.04)" fill="#353263"/>
    <path id="Path_64" data-name="Path 64" d="M142.458,106.166a9.969,9.969,0,0,0,7.684-3.6l13.435-16.12h24.75a16.451,16.451,0,0,0,16.432-16.432V37.151a16.451,16.451,0,0,0-16.432-16.432H171.894a19.719,19.719,0,1,0-39.437,0H116.025A16.451,16.451,0,0,0,99.593,37.151V55.3A35.983,35.983,0,0,0,76.588,47.01H73.3A36.337,36.337,0,0,0,45.15,60.481a23.4,23.4,0,0,0-17.858,22.68,39.272,39.272,0,0,0,13.323,29.476,29.609,29.609,0,0,0,16.255,23.271V143l-22.933,5.4A42.557,42.557,0,0,0,1,189.983v14.776H139.03V189.983a42.793,42.793,0,0,0-4-18.089h12.318l13.435,16.117a10,10,0,0,0,17.684-6.4v-9.718h9.859a16.451,16.451,0,0,0,16.432-16.432V129.171a16.451,16.451,0,0,0-16.432-16.432H122.6a16.451,16.451,0,0,0-16.432,16.432v19.245c-.026-.007-.049-.016-.072-.02L83.161,143v-7.092a29.614,29.614,0,0,0,16.255-23.271,39.232,39.232,0,0,0,13.142-26.19h19.9v9.718a10.012,10.012,0,0,0,10,10Zm9.718-98.593A13.146,13.146,0,1,1,139.03,20.719,13.159,13.159,0,0,1,152.176,7.573ZM58.818,149.294l7.089,9.455-7.654,10.2-6.619-17.97Zm11.2,14.93L79.072,176.3l-8.062,21.888H69.023L60.961,176.3ZM7.573,189.983a36.012,36.012,0,0,1,27.872-35.191l9.738-2.291,16.833,45.685H33.864V178.467H27.291v19.719H7.573Zm105.166-60.812a9.871,9.871,0,0,1,9.859-9.859h65.729a9.871,9.871,0,0,1,9.859,9.859v26.291a9.871,9.871,0,0,1-9.859,9.859H171.894v16.291a3.428,3.428,0,0,1-6.06,2.2l-15.4-18.486H131.208a42.464,42.464,0,0,0-18.47-14.773Zm19.719,60.812v8.2H112.739V178.467h-6.573v19.719H78.014L94.844,152.5l9.738,2.291a36.017,36.017,0,0,1,27.876,35.191Zm-44.058-39-6.619,17.97-7.657-10.208,7.089-9.455Zm-11.811-6.478-6.573,8.765-6.573-8.765v-6.241a28.713,28.713,0,0,0,13.146,0ZM93.02,109.452a23.005,23.005,0,0,1-46.01,0V94.016a4.282,4.282,0,0,1,6.658-3.562l8.778,5.853H83.161a9.871,9.871,0,0,1,9.859,9.859Zm6.28-6.192a16.438,16.438,0,0,0-16.14-13.527H64.438l-7.125-4.749a10.854,10.854,0,0,0-16.876,9.031v8.821a32.727,32.727,0,0,1-6.573-19.676A16.8,16.8,0,0,1,47.339,66.729l1.551-.312.749-1A29.726,29.726,0,0,1,73.3,53.583h3.286a29.612,29.612,0,0,1,29.578,29.578A32.747,32.747,0,0,1,99.3,103.261Zm13.271-23.386a35.916,35.916,0,0,0-6.405-17.435V37.151a9.871,9.871,0,0,1,9.859-9.859h17.582a19.768,19.768,0,0,0,6.422,8.929,32.891,32.891,0,0,0-20.718,30.508V73.3H185.04V66.729a32.891,32.891,0,0,0-20.718-30.508,19.768,19.768,0,0,0,6.422-8.929h17.582a9.871,9.871,0,0,1,9.859,9.859V70.015a9.871,9.871,0,0,1-9.859,9.859H160.494L145.087,98.361a3.425,3.425,0,0,1-6.057-2.2V79.874Zm39.6-39.437a26.322,26.322,0,0,1,26.291,26.291H125.884A26.322,26.322,0,0,1,152.176,40.437Z" transform="translate(0)" fill="#353263"/>
    <path id="Path_65" data-name="Path 65" d="M37,39h72.3v6.573H37Z" transform="translate(82.312 86.884)" fill="#353263"/>
    <path id="Path_66" data-name="Path 66" d="M37,43h72.3v6.573H37Z" transform="translate(82.312 96.03)" fill="#353263"/>
    <path id="Path_67" data-name="Path 67" d="M41,47H87.01v6.573H41Z" transform="translate(91.457 105.176)" fill="#353263"/>
    <path id="Path_68" data-name="Path 68" d="M57,47h6.573v6.573H57Z" transform="translate(128.04 105.176)" fill="#353263"/>
  </g>
</svg>
