<svg xmlns="http://www.w3.org/2000/svg" width="358.566" height="734" viewBox="0 0 358.566 734">
  <g id="Device" transform="translate(-541.017 -195)">
    <g id="iphone_x_light" data-name="iphone x light" transform="translate(541 195)">
      <g id="iphone_x_light-2" data-name="iphone x light">
        <g id="Buttons">
          <path id="Right_4" data-name="Right #4" d="M355.15,254.34V167.55h1.92v.419h1.21c.1,0,.3.314.3.523v84.914c0,.1-.2.419-.3.419h-1.21v.515Z" fill="#424b5a"/>
          <path id="Left_3" data-name="Left #3" d="M1.25,272.02v-.335H.341c-.1,0-.3-.313-.3-.522V218a.2.2,0,0,1-.02-.088c0-.176.237-.33.324-.33H1.25v-.712H3.17V272.02Z" fill="#424b5a"/>
          <path id="Left_2" data-name="Left #2" d="M1.25,201.16v-.5H.341c-.1,0-.3-.313-.3-.522V146.976a.463.463,0,0,1,.3-.418H1.25v-.549H3.17v55.15Z" fill="#424b5a"/>
          <path id="Left_1" data-name="Left #1" d="M1.71,123.68v-.309H.86c-.1,0-.3-.312-.3-.522V95.9a.463.463,0,0,1,.3-.418h.85V94.75H3.63v28.93Z" fill="#424b5a"/>
        </g>
        <g id="Body">
          <rect id="body-2" data-name="body" width="352.88" height="734" rx="42.49" transform="translate(2.91)" fill="none"/>
          <path id="Border" d="M313.3,734H45.4A42.455,42.455,0,0,1,2.91,691.51V42.49A42.454,42.454,0,0,1,45.4,0H313.3a42.455,42.455,0,0,1,42.49,42.49V691.51A42.455,42.455,0,0,1,313.3,734ZM45.4,3A39.453,39.453,0,0,0,5.914,42.485V691.513A39.453,39.453,0,0,0,45.4,731H313.309a39.454,39.454,0,0,0,39.486-39.487V42.485A39.453,39.453,0,0,0,313.309,3Z" fill="#424b5a"/>
        </g>
        <g id="Screen">
          <path id="border-2" data-name="border" d="M315.572,722.485H43.135a23.3,23.3,0,0,1-8.738-2.042,36.551,36.551,0,0,1-9.106-5.543,30.977,30.977,0,0,1-7.973-9.848,26.888,26.888,0,0,1-2.875-12.19V43.234a30.336,30.336,0,0,1,2.423-11.68A35.8,35.8,0,0,1,23.323,21.4c5.688-6.282,13.023-9.884,20.124-9.884H84.256c4.118,0,6.834,2.9,7.649,8.179,1.115,6.868,3.462,11.779,6.978,14.6a10.654,10.654,0,0,0,6.714,2.493H253.111a10.5,10.5,0,0,0,6.675-2.454c3.5-2.8,5.86-7.729,7.018-14.649.929-5.266,3.646-8.166,7.648-8.166H315.26a23.852,23.852,0,0,1,10.2,2.385,31.4,31.4,0,0,1,8.879,6.355,35.633,35.633,0,0,1,7.237,10.58,30.457,30.457,0,0,1,2.688,12.4V692.862a26.888,26.888,0,0,1-2.875,12.19,30.977,30.977,0,0,1-7.973,9.848,36.534,36.534,0,0,1-9.105,5.543A23.3,23.3,0,0,1,315.572,722.485ZM43.448,13.514c-6.56,0-13.372,3.382-18.689,9.28a33.8,33.8,0,0,0-6.04,9.519,28.345,28.345,0,0,0-2.274,10.922V692.862A24.907,24.907,0,0,0,19.12,704.18a29,29,0,0,0,7.452,9.184,34.6,34.6,0,0,0,8.525,5.2,21.684,21.684,0,0,0,8.038,1.916H315.572a21.686,21.686,0,0,0,8.038-1.916,34.578,34.578,0,0,0,8.525-5.2,29,29,0,0,0,7.452-9.184,24.91,24.91,0,0,0,2.677-11.318V43.227a28.464,28.464,0,0,0-2.539-11.63,33.633,33.633,0,0,0-6.808-9.934,29.436,29.436,0,0,0-8.247-5.924,21.889,21.889,0,0,0-9.409-2.225H274.452a4.675,4.675,0,0,0-3.659,1.631,9.941,9.941,0,0,0-2.017,4.874c-1.243,7.415-3.847,12.755-7.74,15.871a12.458,12.458,0,0,1-7.925,2.893H105.6a12.7,12.7,0,0,1-7.965-2.932c-3.913-3.136-6.5-8.467-7.7-15.844a9.486,9.486,0,0,0-1.942-4.866,4.757,4.757,0,0,0-3.732-1.626Z" fill="#424b5a"/>
        </g>
        <g id="Cam_Speaker" data-name="Cam &amp; Speaker">
          <ellipse id="Camera" cx="6.14" cy="6" rx="6.14" ry="6" transform="translate(200.72 15)" fill="#424b5a"/>
          <rect id="Front_Speaker" data-name="Front Speaker" width="44.11" height="5.45" rx="2.725" transform="translate(146 18.27)" fill="#424b5a"/>
        </g>
      </g>
    </g>
  </g>
</svg>
