<svg xmlns="http://www.w3.org/2000/svg" width="202.312" height="202.309" viewBox="0 0 202.312 202.309">
  <g id="file" transform="translate(0 -0.004)">
    <path id="Path_52" data-name="Path 52" d="M0,0,163.687,4.217,130.251,97.6-32.183,95.9Z" transform="translate(36 101.313)" fill="#d2e2e8"/>
    <path id="Path_45" data-name="Path 45" d="M190.745,97.9H169.678V88.106a16.334,16.334,0,0,0-16.315-16.315H150.1V13.056A13.065,13.065,0,0,0,137.048,0h-124A13.065,13.065,0,0,0,0,13.056v32.63H19.578V58.739H16.315A16.334,16.334,0,0,0,0,75.054V189.261H.131A11.869,11.869,0,0,0,0,190.749a11.577,11.577,0,0,0,11.564,11.564H160.64a11.615,11.615,0,0,0,10.844-7.544l30.11-81.3A11.565,11.565,0,0,0,190.745,97.9ZM153.363,78.317a9.8,9.8,0,0,1,9.789,9.789V97.9H150.1V78.317Zm-9.789-65.261V97.9H41.672a11.611,11.611,0,0,0-10.842,7.544L26.1,118.192V13.056A12.909,12.909,0,0,0,24.29,6.53H137.048A6.533,6.533,0,0,1,143.574,13.056ZM6.526,39.16v-26.1a6.526,6.526,0,0,1,13.052,0v26.1Zm9.789,26.1h3.263v70.547L6.526,171.053v-96A9.8,9.8,0,0,1,16.315,65.265Zm179.154,45.944L165.361,192.5a5.054,5.054,0,0,1-4.724,3.289H11.564A5.037,5.037,0,0,1,6.84,189L36.948,107.71a5.054,5.054,0,0,1,4.724-3.289H190.748a5.037,5.037,0,0,1,4.721,6.787Zm0,0" fill="#353263"/>
    <path id="Path_46" data-name="Path 46" d="M275.055,435.582h46.454L331.3,416H284.844Zm13.823-13.052h31.859l-3.263,6.526H285.615Zm0,0" transform="translate(-162.865 -246.322)" fill="#353263"/>
    <rect id="Rectangle_2" data-name="Rectangle 2" width="97" height="30" transform="translate(36 16.313)" fill="#d2e2e8"/>
    <path id="Path_47" data-name="Path 47" d="M184.417,32H80V71.16H184.417Zm-6.526,32.63H86.526V38.53h91.365Zm0,0" transform="translate(-47.37 -18.948)" fill="#353263"/>
    <path id="Path_48" data-name="Path 48" d="M80,144h68.524v6.526H80Zm0,0" transform="translate(-47.37 -85.265)" fill="#353263"/>
    <path id="Path_49" data-name="Path 49" d="M80,176H184.417v6.526H80Zm0,0" transform="translate(-47.37 -104.213)" fill="#353263"/>
    <path id="Path_50" data-name="Path 50" d="M80,208h84.839v6.526H80Zm0,0" transform="translate(-47.37 -123.161)" fill="#353263"/>
    <path id="Path_51" data-name="Path 51" d="M304,208h13.052v6.526H304Zm0,0" transform="translate(-180.004 -123.161)" fill="#353263"/>
  </g>
</svg>
