<svg xmlns="http://www.w3.org/2000/svg" width="11.62" height="11.76" viewBox="0 0 11.62 11.76">
  <path id="instagram" d="M1283.6,1148.96h-7.129a2.262,2.262,0,0,1-2.245-2.272v-7.215a2.262,2.262,0,0,1,2.245-2.272h7.128a2.262,2.262,0,0,1,2.246,2.272v7.215A2.262,2.262,0,0,1,1283.6,1148.96Zm-8.243-7.087v4.814a1.121,1.121,0,0,0,1.113,1.126h7.129a1.121,1.121,0,0,0,1.113-1.126v-4.814h-1.735a3.176,3.176,0,1,1-5.886,0Zm4.679-.864a2.049,2.049,0,0,0-1.659.863,2.081,2.081,0,0,0,.212,2.67,2.019,2.019,0,0,0,1.446.607,2.07,2.07,0,0,0,0-4.14Zm4.465-2.455h-.256l-1.714.005.007,1.994,1.963-.006v-1.993Z" transform="translate(-1274.23 -1137.2)" fill="#344457"/>
</svg>
