<svg xmlns="http://www.w3.org/2000/svg" xmlns:xlink="http://www.w3.org/1999/xlink" width="636" height="620" viewBox="0 0 636 620">
  <defs>
    <clipPath id="clip-path">
      <rect id="vectorMask" width="636" height="620" transform="translate(244)" fill="rgba(0,0,0,0)"/>
    </clipPath>
  </defs>
  <g id="product_tablet" transform="translate(0 -3607)">
    <rect id="Mask" width="636" height="620" transform="translate(0 3607)" fill="rgba(0,0,0,0)"/>
    <g id="Mask_by_Mask" data-name="Mask by Mask" transform="translate(-244 3607)">
      <g id="Mask_by_Mask-2" data-name="Mask by Mask" clip-path="url(#clip-path)">
        <g id="Mask_by_Mask-3" data-name="Mask by Mask">
          <g id="iPad_2" data-name="iPad 2">
            <g id="Body">
              <path id="inner_Border" data-name="inner Border" d="M77.59,614.153c-19.814,0-33.31-.087-44.083-3.48-11.956-4.333-18.353-10.953-22.69-22.818C7.4,577.085,7.711,564.432,7.711,544.7V75.048c0-19.729-.315-32.425,3.091-43.155,4.352-11.9,10.591-18.482,22.505-22.8C44.123,5.685,56.833,5.6,76.647,5.6h727.8c19.812,0,32.693.087,43.469,3.48C859.871,13.411,866.6,20.032,870.932,31.9c3.422,10.771,3.766,23.423,3.766,43.152V544.7c0,19.73-.346,32.427-3.752,43.155-4.349,11.905-11.248,18.482-23.162,22.8-10.818,3.407-23.53,3.495-43.341,3.495-.187.186-80.991.248-188.692.248C400.386,614.4,77.59,614.153,77.59,614.153Z" fill="rgba(0,0,0,0)" stroke="#424b5a" stroke-linecap="round" stroke-width="1"/>
              <path id="Border" d="M618.011,620c-216.228,0-541.891-.25-545.12-.252-10.6,0-18.658-.034-25.761-.477A78.609,78.609,0,0,1,28.238,616.2c-6.158-2.244-10.73-5.022-14.386-8.743-3.6-3.666-6.335-8.273-8.6-14.5C2.067,582.872,2.082,571.266,2.1,553.7q0-2.273,0-4.678V70.728q0-2.415,0-4.694c-.023-17.586-.038-29.2,3.136-39.255,2.275-6.259,4.983-10.869,8.525-14.508,3.613-3.713,8.148-6.482,14.272-8.713A76.216,76.216,0,0,1,46.568.478C53.478.034,61.441,0,71.936,0H809.147c20.97,0,33.355.165,44.032,3.544a47.123,47.123,0,0,1,8.135,3.793A32.148,32.148,0,0,1,872.7,18.674a46.03,46.03,0,0,1,3.792,8.107c3.549,11.231,3.814,24.692,3.814,43.947V549.019c0,19.28-.264,32.756-3.8,43.948a44.958,44.958,0,0,1-3.827,8.125,32.576,32.576,0,0,1-5.03,6.383,33.388,33.388,0,0,1-6.467,4.934,48.04,48.04,0,0,1-8.138,3.778,76.259,76.259,0,0,1-18.534,3.081c-6.913.444-14.874.479-25.367.479C808.976,619.915,744.669,620,618.011,620ZM71.936,2.1c-10.357,0-18.212.033-25,.465A74.188,74.188,0,0,0,28.872,5.546c-5.818,2.121-10.122,4.736-13.544,8.23-3.373,3.443-5.946,7.8-8.1,13.724C4.166,37.2,4.181,48.64,4.205,65.953q0,2.32,0,4.775V549.019q0,2.448,0,4.756c-.024,17.39-.039,28.878,3.038,38.623,2.157,5.931,4.7,10.283,8.012,13.7,3.4,3.508,7.689,6.127,13.5,8.245a76.77,76.77,0,0,0,18.138,3.033c7.247.487,15.747.527,25.3.527H809.409c19.813,0,32.6-.24,43.135-3.573,11.422-4.164,17.788-10.561,21.974-22.081a78.361,78.361,0,0,0,3.1-18.125c.493-6.836.592-14.673.592-25.1V70.728c0-10.438-.1-18.283-.593-25.13A78.634,78.634,0,0,0,874.5,27.412c-4.106-11.3-10.531-17.637-22.177-21.881C841.984,2.258,829.8,2.1,809.147,2.1Z" fill="#424b5a"/>
            </g>
            <path id="Button" d="M840.381,334.491a23.746,23.746,0,1,1,9.268-1.87A23.676,23.676,0,0,1,840.381,334.491Zm0-45.485a21.693,21.693,0,1,0,21.71,21.693A21.726,21.726,0,0,0,840.381,289.006Z" fill="#424b5a"/>
            <path id="Camera" d="M41.319,286.907a4.9,4.9,0,1,0,4.9,4.9,4.9,4.9,0,0,0-4.9-4.9" fill="#424b5a"/>
            <path id="Camera_Copy" data-name="Camera Copy" d="M41.319,300.2a2.8,2.8,0,1,0,2.8,2.8,2.8,2.8,0,0,0-2.8-2.8" fill="#424b5a"/>
            <g id="Screen">
              <path id="Border-2" data-name="Border" d="M801.864,580.812H81.937V40.586H801.864V580.811ZM83.34,41.99V579.42H800.47V41.99Z" fill="#424b5a"/>
            </g>
            <rect id="Button-2" data-name="Button" width="3.5" height="35.69" transform="translate(0 46.88)" fill="#424b5a"/>
          </g>
        </g>
      </g>
    </g>
  </g>
</svg>
