<svg xmlns="http://www.w3.org/2000/svg" width="276.527" height="203.003" viewBox="0 0 276.527 203.003">
  <g id="team" transform="translate(0 -68.066)">
    <g id="Group_18" data-name="Group 18" transform="translate(212.122 154.688)">
      <g id="Group_17" data-name="Group 17">
        <path id="Path_53" data-name="Path 53" d="M424.6,233.208c-9.409-4.7-27.052-4.759-27.8-4.759a4.051,4.051,0,0,0,0,8.1c4.552,0,17.77.7,24.175,3.9a4.051,4.051,0,0,0,3.623-7.246Z" transform="translate(-392.751 -228.449)"/>
      </g>
    </g>
    <g id="Group_20" data-name="Group 20" transform="translate(0 68.066)">
      <g id="Group_19" data-name="Group 19">
        <path id="Path_52" data-name="Path 52" d="M0,0H79.318L77.364,83.756s-23.07,32.408-44.518,32.408S-8.428,83.756-8.428,83.756l-8.993-48.2Z" transform="translate(106 4.136)" fill="#d2e2e8"/>
        <path id="Path_60" data-name="Path 60" d="M40.343,67.571S64.16,69.337,70.788,90.7s0,22.43,0,22.43l-11.2,17.15L42.9,136.5l-20.071-6.221-10.218-17.15V93.1L22.831,77.524Z" fill="#d2e2e8"/>
        <path id="Path_61" data-name="Path 61" d="M39.2,67.571S67.446,65.422,72.4,71.4s-4.012,41.729-4.012,41.729l-10.736,17.15-16,6.221-19.243-6.221-9.8-17.15V93.1l9.8-15.572Z" transform="translate(188)" fill="#d2e2e8"/>
        <path id="Path_54" data-name="Path 54" d="M264.166,217.118l-16.729-4.78a1.7,1.7,0,0,1-1.227-1.626v-5.584a30.444,30.444,0,0,0,3.873-3.176,29.8,29.8,0,0,0,9.121-21.558v-7.705l1.618-3.235a25.841,25.841,0,0,0,2.713-11.5V137.083a4.051,4.051,0,0,0-4.051-4.051H220.5A25.736,25.736,0,0,0,194.8,158.738v.241a21.485,21.485,0,0,0,2.257,9.559l2.074,4.149V179.3a31.606,31.606,0,0,0,12.994,25.554v5.852c0,.9,0,1.276-3.345,2.232l-8.163,2.332L177,206.689a4.046,4.046,0,0,0-1.1-3.1l-7.546-7.927V182.352c.8-.657,1.584-1.332,2.346-2.046a47.542,47.542,0,0,0,14.978-34.561V135.117a46.822,46.822,0,0,0,4.331-19.69V72.117a4.051,4.051,0,0,0-4.051-4.051H125.321a38.743,38.743,0,0,0-38.7,38.7v8.663a46.823,46.823,0,0,0,4.331,19.69v9.144a49.5,49.5,0,0,0,17.325,37.777v13.621l-7.546,7.927a4.046,4.046,0,0,0-1.1,3.1l-24.923,9.062a21.242,21.242,0,0,0-5.008,2.624l-3.914-1.957c11.65-5.071,15.34-12.2,15.517-12.557a4.05,4.05,0,0,0,0-3.623c-2.92-5.841-3.274-16.546-3.558-25.147-.095-2.864-.184-5.569-.355-7.978-1.381-19.429-16.151-34.081-34.358-34.081S10.053,147.684,8.672,167.114c-.171,2.409-.261,5.115-.355,7.979-.284,8.6-.638,19.305-3.558,25.146a4.05,4.05,0,0,0,0,3.623c.177.354,3.86,7.472,15.533,12.549l-10.87,5.435A16.956,16.956,0,0,0,0,237.09v29.926a4.051,4.051,0,0,0,8.1,0V237.09a8.9,8.9,0,0,1,4.943-8l13.536-6.768,4.709,4.475a17.035,17.035,0,0,0,23.482,0l4.708-4.474,4.414,2.207a21.331,21.331,0,0,0-3.258,11.31v31.177a4.051,4.051,0,0,0,8.1,0V235.84a13.314,13.314,0,0,1,8.738-12.475l26.277-9.555,10.938,16.409a8.351,8.351,0,0,0,6.148,3.692q.42.041.836.041a8.349,8.349,0,0,0,5.918-2.455l6.673-6.673v42.194a4.051,4.051,0,0,0,8.1,0V224.824l6.673,6.673a8.345,8.345,0,0,0,5.918,2.456q.416,0,.835-.041a8.351,8.351,0,0,0,6.148-3.692l10.939-16.408,26.276,9.555a13.315,13.315,0,0,1,8.738,12.475v31.177a4.051,4.051,0,0,0,8.1,0V235.841A21.414,21.414,0,0,0,210,221.021l1-.286a22.216,22.216,0,0,0,3.769-1.361l10.342,10.342v37.3a4.051,4.051,0,1,0,8.1,0v-37.3l10.27-10.27a9.635,9.635,0,0,0,1.723.684l16.73,4.78a8.981,8.981,0,0,1,6.486,8.6v33.51a4.051,4.051,0,0,0,8.1,0v-33.51A17.118,17.118,0,0,0,264.166,217.118ZM25.987,209.963c-7.577-2.726-11.378-6.361-13-8.346a44.65,44.65,0,0,0,2.309-9.7,30.206,30.206,0,0,0,10.691,13.191Zm23.205,10.963a8.939,8.939,0,0,1-12.321,0l-3.767-3.58a8.381,8.381,0,0,0,.985-3.956v-4.317a30.122,30.122,0,0,0,17.885,0v4.314a8.381,8.381,0,0,0,.985,3.957Zm-6.159-18.6A21.96,21.96,0,0,1,21.1,180.395a4.026,4.026,0,0,0-4.716-3.991c.012-.348.023-.7.035-1.042.09-2.785.177-5.416.338-7.673A30.073,30.073,0,0,1,24.943,148.8a25.168,25.168,0,0,1,36.176,0,30.073,30.073,0,0,1,8.189,18.886c.16,2.256.247,4.886.339,7.671.008.239.016.482.024.723-4.407-6.79-11.213-11.794-20.008-14.62a50.838,50.838,0,0,0-15.407-2.441,4.051,4.051,0,0,0-2.8,1.237l-7.309,7.58a4.051,4.051,0,0,0,5.832,5.623l6.081-6.307c5.237.256,22.087,2.215,28.639,16.645A21.883,21.883,0,0,1,43.032,202.331Zm17.042,7.646v-4.831a29.963,29.963,0,0,0,10.694-13.2,44.593,44.593,0,0,0,2.306,9.677C71.462,203.584,67.643,207.252,60.074,209.977Zm38.981-65.715v-10.05a4.051,4.051,0,0,0-.4-1.761,38.855,38.855,0,0,1-3.928-17.023v-8.662a30.633,30.633,0,0,1,30.6-30.6h56.585v39.26a38.855,38.855,0,0,1-3.928,17.023,4.051,4.051,0,0,0-.4,1.761v11.534a38.888,38.888,0,0,1-12.417,28.65,40.316,40.316,0,0,1-3.11,2.633c-.024.016-.046.034-.07.051a38.948,38.948,0,0,1-26.285,7.842C115.148,183.591,99.055,165.731,99.055,144.262Zm22.808,81.506a.255.255,0,0,1-.226.08.258.258,0,0,1-.206-.124l-12.6-18.9,4.054-4.26L132,215.631Zm16.453-15.632-21.936-14.994V187.58a45.608,45.608,0,0,0,18.79,5.425q1.6.1,3.187.1a46.92,46.92,0,0,0,21.894-5.366v7.4Zm16.884,15.59a.258.258,0,0,1-.206.124.25.25,0,0,1-.226-.08l-10.136-10.136,19.111-13.064,4.054,4.26Zm73.966-3.418-9.192-9.192a11.112,11.112,0,0,0,.251-2.406V209a28.4,28.4,0,0,0,8.021,1.417c.312.01.622.014.933.014a30.088,30.088,0,0,0,8.931-1.351v1.631a9.683,9.683,0,0,0,.293,2.361Zm15.275-26.17a21.771,21.771,0,0,1-15.953,6.182c-11.722-.352-21.259-10.677-21.259-23.015v-7.573a4.047,4.047,0,0,0-.428-1.811l-2.5-5a13.343,13.343,0,0,1-1.4-5.936v-.241a17.625,17.625,0,0,1,17.6-17.6h34.929v16.824a17.7,17.7,0,0,1-1.858,7.873l-2.045,4.09a4.048,4.048,0,0,0-.428,1.811v8.662A21.763,21.763,0,0,1,244.441,196.138Z" transform="translate(0 -68.066)" fill="#353263"/>
      </g>
    </g>
    <g id="Group_22" data-name="Group 22" transform="translate(251.101 236.979)">
      <g id="Group_21" data-name="Group 21">
        <path id="Path_55" data-name="Path 55" d="M468.974,380.814a4.051,4.051,0,0,0-4.051,4.051v25.987a4.051,4.051,0,1,0,8.1,0V384.865A4.051,4.051,0,0,0,468.974,380.814Z" transform="translate(-464.923 -380.814)" fill="#353263"/>
      </g>
    </g>
    <g id="Group_24" data-name="Group 24" transform="translate(17.325 242.333)">
      <g id="Group_23" data-name="Group 23">
        <path id="Path_56" data-name="Path 56" d="M36.128,390.728a4.051,4.051,0,0,0-4.051,4.051v20.632a4.051,4.051,0,0,0,8.1,0V394.779A4.051,4.051,0,0,0,36.128,390.728Z" transform="translate(-32.077 -390.728)" fill="#353263"/>
      </g>
    </g>
    <g id="Group_26" data-name="Group 26" transform="translate(103.946 104.866)">
      <g id="Group_25" data-name="Group 25">
        <path id="Path_57" data-name="Path 57" d="M260.01,148.232c-15.32-15.32-47.374-12.391-60.446-10.421a8.316,8.316,0,0,0-7.1,8.284v9.332a4.051,4.051,0,1,0,8.1,0v-9.332a.268.268,0,0,1,.212-.274,127.971,127.971,0,0,1,26.316-1.285c12.632.841,21.781,4.012,27.193,9.425a4.05,4.05,0,1,0,5.728-5.728Z" transform="translate(-192.46 -136.203)" fill="#353263"/>
      </g>
    </g>
    <g id="Group_28" data-name="Group 28" transform="translate(86.622 245.641)">
      <g id="Group_27" data-name="Group 27">
        <path id="Path_58" data-name="Path 58" d="M164.435,396.853a4.051,4.051,0,0,0-4.051,4.051v17.325a4.051,4.051,0,0,0,8.1,0V400.9A4.051,4.051,0,0,0,164.435,396.853Z" transform="translate(-160.384 -396.853)" fill="#353263"/>
      </g>
    </g>
    <g id="Group_30" data-name="Group 30" transform="translate(181.906 245.641)">
      <g id="Group_29" data-name="Group 29">
        <path id="Path_59" data-name="Path 59" d="M340.857,396.853a4.051,4.051,0,0,0-4.051,4.051v17.325a4.051,4.051,0,0,0,8.1,0V400.9A4.051,4.051,0,0,0,340.857,396.853Z" transform="translate(-336.806 -396.853)" fill="#353263"/>
      </g>
    </g>
  </g>
</svg>
