<svg xmlns="http://www.w3.org/2000/svg" width="206.311" height="206.307" viewBox="0 0 206.311 206.307">
  <g id="testimonial" transform="translate(0 -0.005)">
    <path id="Path_33" data-name="Path 33" d="M140.663,87.864H77.588A67.588,67.588,0,0,0,10,155.452h0A67.588,67.588,0,0,0,77.588,223.04h45.319l31.7,31.7V221.6a67.61,67.61,0,0,0,53.646-66.145h0A67.588,67.588,0,0,0,140.663,87.864Z" transform="translate(-5.97 -52.456)" fill="#d2e2e8"/>
    <g id="Group_16" data-name="Group 16" transform="translate(25.789 4.034)">
      <path id="Path_34" data-name="Path 34" d="M88.117,10V22.063Q76.51,23.119,76.511,38.869H88.119a2.318,2.318,0,0,1,2.319,2.319V60.667a2.318,2.318,0,0,1-2.319,2.319h-21.8A2.318,2.318,0,0,1,64,60.667V39.7Q64,11.362,88.117,10Z" transform="translate(-64 -10.004)" fill="#d2e2e8"/>
      <path id="Path_35" data-name="Path 35" d="M190.352,10V22.063q-11.607,1.056-11.606,16.807h11.609a2.318,2.318,0,0,1,2.319,2.319V60.667a2.318,2.318,0,0,1-2.319,2.319h-21.8a2.318,2.318,0,0,1-2.319-2.319V39.7Q166.235,11.362,190.352,10Z" transform="translate(-125.039 -10.004)" fill="#d2e2e8"/>
    </g>
    <path id="Path_36" data-name="Path 36" d="M82.149,61.046h-21.8A6.355,6.355,0,0,1,54,54.7V33.728C54,7.158,69.183.727,81.92.011a4.029,4.029,0,0,1,4.256,4.023V16.092a4.029,4.029,0,0,1-3.664,4.013c-2.078.189-6.592.6-7.7,8.764h7.332A6.355,6.355,0,0,1,88.5,35.217V54.7A6.355,6.355,0,0,1,82.149,61.046Zm-20.09-8.059H80.438V36.928h-9.9a4.029,4.029,0,0,1-4.03-4.029c0-13.62,6.21-18.471,11.606-20.113V8.549C70.3,10.011,62.059,15.188,62.059,33.728Z" transform="translate(-32.241 0)" fill="#353263"/>
    <path id="Path_37" data-name="Path 37" d="M184.383,61.046h-21.8a6.355,6.355,0,0,1-6.348-6.348V33.728c0-26.57,15.183-33,27.92-33.717a4.029,4.029,0,0,1,4.256,4.023V16.092a4.029,4.029,0,0,1-3.664,4.013c-2.078.189-6.592.6-7.7,8.764h7.333a6.355,6.355,0,0,1,6.348,6.348V54.7A6.355,6.355,0,0,1,184.383,61.046Zm-20.09-8.059h18.379V36.928h-9.9a4.029,4.029,0,0,1-4.029-4.03c0-13.62,6.21-18.471,11.606-20.113V8.549c-7.813,1.462-16.058,6.639-16.058,25.179Z" transform="translate(-93.279 0)" fill="#353263"/>
    <path id="Path_38" data-name="Path 38" d="M272.029,85.924a4.031,4.031,0,1,1,2.849-1.181A4.06,4.06,0,0,1,272.029,85.924Z" transform="translate(-160.009 -46.486)" fill="#353263"/>
    <path id="Path_39" data-name="Path 39" d="M148.635,252.8a4.028,4.028,0,0,1-2.85-1.18L115.268,221.1H71.618A71.634,71.634,0,0,1,8.991,114.719a4.029,4.029,0,0,1,7.042,3.918,63.576,63.576,0,0,0,55.584,94.4h45.319a4.03,4.03,0,0,1,2.849,1.18l24.819,24.819V215.627a4.03,4.03,0,0,1,3.2-3.944,63.564,63.564,0,0,0-13.114-125.76h-5.078a4.03,4.03,0,1,1,0-8.059h5.078A71.626,71.626,0,0,1,152.664,218.82v29.948a4.03,4.03,0,0,1-4.029,4.029Z" transform="translate(0 -46.486)" fill="#353263"/>
    <path id="Path_40" data-name="Path 40" d="M226.143,185.551H126.966a4.03,4.03,0,0,1,0-8.059h99.177a4.03,4.03,0,1,1,0,8.059Z" transform="translate(-73.399 -105.969)" fill="#353263"/>
    <path id="Path_41" data-name="Path 41" d="M226.143,238.884H126.966a4.03,4.03,0,1,1,0-8.059h99.177a4.03,4.03,0,1,1,0,8.059Z" transform="translate(-73.399 -137.811)" fill="#353263"/>
    <path id="Path_42" data-name="Path 42" d="M226.143,292.217H126.966a4.029,4.029,0,1,1,0-8.059h99.177a4.029,4.029,0,1,1,0,8.059Z" transform="translate(-73.399 -169.654)" fill="#353263"/>
    <path id="Path_43" data-name="Path 43" d="M294.764,345.551H241.9a4.029,4.029,0,1,1,0-8.059h52.864a4.029,4.029,0,0,1,0,8.059Z" transform="translate(-142.021 -201.497)" fill="#353263"/>
    <path id="Path_44" data-name="Path 44" d="M185.54,345.55h-.065a4.03,4.03,0,1,1,0-8.059h.065a4.03,4.03,0,0,1,0,8.059Z" transform="translate(-108.332 -201.496)" fill="#353263"/>
  </g>
</svg>
