<svg xmlns="http://www.w3.org/2000/svg" width="17.14" height="12.71" viewBox="0 0 17.14 12.71">
  <path id="Twitter" d="M1222.361,1139.294l-.031-.021a2.931,2.931,0,0,0-2.254-.865l-.031-.062.021-.01a2.6,2.6,0,0,0,1.39-.573c.041-.167-.01-.26-.185-.281a4.22,4.22,0,0,0-1.081.271c.412-.271.566-.458.474-.552a2.07,2.07,0,0,0-1.3.635c.165-.292.237-.458.2-.479a3.006,3.006,0,0,0-.576.49,9.36,9.36,0,0,0-.844,1.094l-.01.021a9.838,9.838,0,0,0-1.163,2.74l-.082.073-.021.01a4.371,4.371,0,0,0-1.2-1.052,13.4,13.4,0,0,0-1.976-1.063,16.414,16.414,0,0,0-2.512-1.073,2.563,2.563,0,0,0,1.379,2.292v.01a3.271,3.271,0,0,0-.947.146c.062.9.69,1.511,1.874,1.844l-.01.021a1.326,1.326,0,0,0-1.142.479,2.065,2.065,0,0,0,2.079,1.115,1.473,1.473,0,0,0-.453.333.711.711,0,0,0-.185.688,1.121,1.121,0,0,0,1.163.542l.031.042-.01.021a4.291,4.291,0,0,1-3.541,1.386l-.021.01a4.486,4.486,0,0,1-2.728-1.229,8.49,8.49,0,0,0,3.9,3.115,9.143,9.143,0,0,0,5.538.135h.031a8.818,8.818,0,0,0,4.56-3.229,6.451,6.451,0,0,0,1.081-2.438,2.223,2.223,0,0,0,2.028-.823l-.01-.021a3.943,3.943,0,0,1-1.822-.1v-.1q1.482-.172,1.76-.969a2.707,2.707,0,0,1-2.038.021,4.516,4.516,0,0,0-1.328-2.584" transform="translate(-1208.66 -1137.2)" fill="#344457"/>
</svg>
