<svg xmlns="http://www.w3.org/2000/svg" width="74.3" height="77.045" viewBox="0 0 74.3 77.045">
  <path id="XMLID_299_" d="M84.44,2.964a2.984,2.984,0,0,0-3-2.964H13.137a2.984,2.984,0,0,0-3,2.964V48.323a2.984,2.984,0,0,0,3,2.964H25.091v4.6a2.191,2.191,0,0,1-2.2,2.176h-6.81a4.637,4.637,0,1,0,0,9.274H76.568a2.207,2.207,0,0,1,1.815.947,2.857,2.857,0,0,0-2.8,2.837v4.689a1.237,1.237,0,0,0,1.244,1.23H83.2a1.237,1.237,0,0,0,1.244-1.23V71.126a2.857,2.857,0,0,0-2.87-2.838h-.481a4.688,4.688,0,0,0-4.521-3.406H16.081a2.176,2.176,0,1,1,0-4.353h6.81a4.668,4.668,0,0,0,4.689-4.637v-4.6H40.636v2.657h-.622a3.719,3.719,0,1,0,0,7.437H54.567a3.719,3.719,0,1,0,0-7.437h-.622V51.287h27.5a2.984,2.984,0,0,0,3-2.964ZM81.57,70.748a.385.385,0,0,1,.382.378v3.458H78.074V71.126a.385.385,0,0,1,.382-.378Zm-27-14.344a1.258,1.258,0,1,1,0,2.516H40.014a1.258,1.258,0,1,1,0-2.516H54.567ZM43.124,53.944V51.287h8.333v2.657Zm38.829-5.621a.513.513,0,0,1-.509.5H13.137a.513.513,0,0,1-.509-.5V44.576H81.952Zm0-6.208H12.628V9.171H81.952Zm0-35.4H12.628V2.964a.513.513,0,0,1,.509-.5H81.443a.513.513,0,0,1,.509.5ZM36.069,26.874h2.958a8.175,8.175,0,0,0,1.543,3.675L38.476,32.62a1.221,1.221,0,0,0,0,1.74,1.254,1.254,0,0,0,1.759,0l2.094-2.071a8.361,8.361,0,0,0,3.716,1.526v2.925a1.244,1.244,0,0,0,2.488,0V33.815a8.361,8.361,0,0,0,3.717-1.526l2.094,2.071a1.254,1.254,0,0,0,1.759,0,1.221,1.221,0,0,0,0-1.74L54.01,30.549a8.175,8.175,0,0,0,1.543-3.675h2.958a1.23,1.23,0,1,0,0-2.461H55.553a8.17,8.17,0,0,0-1.543-3.675L56.1,18.667a1.221,1.221,0,0,0,0-1.74,1.254,1.254,0,0,0-1.759,0L52.25,19a8.365,8.365,0,0,0-3.716-1.526V14.547a1.244,1.244,0,0,0-2.488,0v2.925A8.366,8.366,0,0,0,42.33,19l-2.094-2.071a1.254,1.254,0,0,0-1.759,0,1.221,1.221,0,0,0,0,1.74l2.094,2.071a8.174,8.174,0,0,0-1.543,3.675H36.069a1.23,1.23,0,1,0,0,2.46Zm5.353-1.249a5.841,5.841,0,0,1,5.848-5.783h.038a5.841,5.841,0,0,1,5.848,5.783c0,.006,0,.013,0,.019s0,.013,0,.019a5.842,5.842,0,0,1-5.84,5.784h-.054a5.842,5.842,0,0,1-5.84-5.784c0-.006,0-.013,0-.019S41.423,25.631,41.423,25.624Z" transform="translate(-10.14)" fill="#353263"/>
</svg>
