<svg xmlns="http://www.w3.org/2000/svg" width="80.075" height="72" viewBox="0 0 80.075 72">
  <path id="XMLID_30_" d="M12.9,26.728a1.341,1.341,0,0,1-1.341,1.341h-.378a1.341,1.341,0,1,1,0-2.681h.378A1.341,1.341,0,0,1,12.9,26.728ZM72.422,86.776a4.232,4.232,0,0,1-1.607,5.759l-.008,0a4.191,4.191,0,0,1-2.056.54,4.263,4.263,0,0,1-1.149-.158,4.2,4.2,0,0,1-2.547-1.992L61.54,84.692l-2.957,1.667a1.341,1.341,0,0,1-2-1.181l.147-15.263a1.341,1.341,0,0,1,2.024-1.141L71.888,76.55a1.34,1.34,0,0,1-.025,2.321l-2.958,1.667Zm-2.336,1.317-4.174-7.4a1.341,1.341,0,0,1,.509-1.826l2.1-1.186-9.137-5.408-.1,10.617,2.1-1.186a1.34,1.34,0,0,1,1.826.509l4.175,7.4A1.555,1.555,0,0,0,69.5,90.2l0,0a1.555,1.555,0,0,0,.583-2.1ZM57.651,66.011h4.908a1.341,1.341,0,1,0,0-2.681H57.651a1.341,1.341,0,1,0,0,2.681ZM6.555,25.387H6.178a1.341,1.341,0,1,0,0,2.681h.377a1.341,1.341,0,1,0,0-2.681Zm66.4,37.942H68.044a1.341,1.341,0,1,0,0,2.681h4.908a1.341,1.341,0,0,0,0-2.681ZM16.557,25.387H16.18a1.341,1.341,0,1,0,0,2.681h.377a1.341,1.341,0,1,0,0-2.681Zm9.914,37.942a1.341,1.341,0,1,0,0,2.681h4.907a1.341,1.341,0,1,0,0-2.681Zm10.393,0a1.341,1.341,0,1,0,0,2.681h4.908a1.341,1.341,0,1,0,0-2.681ZM17.193,37.142V63.329h3.793a1.341,1.341,0,1,1,0,2.681H17.193v5.4a1.341,1.341,0,0,1-1.341,1.341h-8.3a1.341,1.341,0,0,1-1.341-1.341V37.142A1.341,1.341,0,0,1,7.552,35.8h8.3A1.341,1.341,0,0,1,17.193,37.142Zm-2.681,1.341H8.893V70.071h5.618Zm35.2,9.2a1.341,1.341,0,0,0,1.341-1.341V41.429a1.341,1.341,0,1,0-2.681,0v4.908A1.341,1.341,0,0,0,49.711,47.678Zm0,20.787a1.341,1.341,0,0,0,1.341-1.341V66.011h1.113a1.341,1.341,0,1,0,0-2.681H51.052V62.216a1.341,1.341,0,1,0-2.681,0v1.113H47.257a1.341,1.341,0,1,0,0,2.681h1.113v1.113A1.341,1.341,0,0,0,49.711,68.465ZM48.371,56.731a1.341,1.341,0,1,0,2.681,0V51.823a1.341,1.341,0,0,0-2.681,0Zm31.7-31.893V75.1a3.763,3.763,0,0,1-3.759,3.759,1.341,1.341,0,1,1,0-2.681A1.079,1.079,0,0,0,77.393,75.1V32.376H51.052v3.567a1.341,1.341,0,0,1-2.681,0V32.376H2.681V75.1a1.079,1.079,0,0,0,1.078,1.078H48.371V72.609a1.341,1.341,0,1,1,2.681,0v3.567H52.64a1.341,1.341,0,1,1,0,2.681H3.759A3.763,3.763,0,0,1,0,75.1V24.838a3.763,3.763,0,0,1,3.759-3.759H76.316A3.763,3.763,0,0,1,80.075,24.838Zm-2.681,0a1.079,1.079,0,0,0-1.078-1.078H3.759a1.079,1.079,0,0,0-1.078,1.078v4.857H77.393Z" transform="translate(0 -21.079)" fill="#fff"/>
</svg>
